# MagicaVoxel @ Ephtracy

# material
mtllib itemmanual.mtl
usemtl palette

# normals
vn -1 0 0
vn 1 0 0
vn 0 0 1
vn 0 0 -1
vn 0 -1 0
vn 0 1 0

# texcoords
vt 0.00195313 0.5
vt 0.111328 0.5
vt 0.306641 0.5
vt 0.677734 0.5
vt 0.826172 0.5
vt 0.958984 0.5
vt 0.962891 0.5

# verts
v -6 0 6
v -6 0 4
v -6 0 3
v -6 0 -3
v -6 0 -4
v -6 0 -6
v -6 1 5
v -6 1 4
v -6 1 3
v -6 1 -3
v -6 1 -4
v -6 1 -6
v -6 4 5
v -6 4 4
v -6 4 3
v -6 4 -3
v -6 4 -4
v -6 4 -6
v -6 5 6
v -6 5 4
v -6 5 3
v -6 5 -3
v -6 5 -4
v -6 5 -6
v -5 1 5
v -5 1 4
v -5 1 3
v -5 1 -3
v -5 1 -4
v -5 1 -5
v -5 2 5
v -5 2 2
v -5 2 1
v -5 2 -1
v -5 2 -3
v -5 2 -5
v -5 3 5
v -5 3 4
v -5 3 3
v -5 3 2
v -5 3 1
v -5 3 -1
v -5 3 -3
v -5 3 -5
v -5 4 5
v -5 4 4
v -5 4 3
v -5 4 -3
v -5 4 -4
v -5 4 -5
v 5 1 5
v 5 1 4
v 5 1 3
v 5 1 -3
v 5 1 -4
v 5 1 -5
v 5 2 5
v 5 2 1
v 5 2 -0
v 5 2 -3
v 5 2 -4
v 5 2 -5
v 5 3 5
v 5 3 3
v 5 3 2
v 5 3 1
v 5 3 -0
v 5 3 -3
v 5 3 -4
v 5 3 -5
v 5 4 5
v 5 4 4
v 5 4 3
v 5 4 2
v 5 4 -3
v 5 4 -4
v 5 4 -5
v 6 0 6
v 6 0 4
v 6 0 3
v 6 0 -3
v 6 0 -4
v 6 0 -6
v 6 1 5
v 6 1 4
v 6 1 3
v 6 1 -3
v 6 1 -4
v 6 1 -6
v 6 4 5
v 6 4 4
v 6 4 3
v 6 4 -3
v 6 4 -4
v 6 4 -6
v 6 5 6
v 6 5 4
v 6 5 3
v 6 5 -3
v 6 5 -4
v 6 5 -6
v -6 0 6
v -6 5 6
v -5 1 6
v -5 4 6
v -4 0 6
v -4 1 6
v -4 4 6
v -4 5 6
v -2 0 6
v -2 5 6
v -1 1 6
v -1 4 6
v 1 1 6
v 1 4 6
v 2 0 6
v 2 5 6
v 4 0 6
v 4 1 6
v 4 4 6
v 4 5 6
v 5 1 6
v 5 4 6
v 6 0 6
v 6 5 6
v -6 1 5
v -6 4 5
v -5 1 5
v -5 2 5
v -5 3 5
v -5 4 5
v 5 1 5
v 5 2 5
v 5 3 5
v 5 4 5
v 6 1 5
v 6 4 5
v -5 1 -5
v -5 2 -5
v -5 3 -5
v -5 4 -5
v -4 1 -5
v -4 4 -5
v -3 3 -5
v -3 4 -5
v -2 1 -5
v -2 3 -5
v -2 4 -5
v 1 2 -5
v 1 3 -5
v 2 1 -5
v 2 2 -5
v 2 3 -5
v 2 4 -5
v 4 1 -5
v 4 4 -5
v 5 1 -5
v 5 2 -5
v 5 3 -5
v 5 4 -5
v -6 0 -6
v -6 1 -6
v -6 4 -6
v -6 5 -6
v -4 0 -6
v -4 1 -6
v -4 4 -6
v -4 5 -6
v -2 0 -6
v -2 1 -6
v -2 4 -6
v -2 5 -6
v 2 0 -6
v 2 1 -6
v 2 4 -6
v 2 5 -6
v 4 0 -6
v 4 1 -6
v 4 4 -6
v 4 5 -6
v 6 0 -6
v 6 1 -6
v 6 4 -6
v 6 5 -6
v -6 0 6
v -4 0 6
v -2 0 6
v 2 0 6
v 4 0 6
v 6 0 6
v -5 0 5
v -4 0 5
v -3 0 5
v -2 0 5
v 2 0 5
v 3 0 5
v 4 0 5
v 5 0 5
v -6 0 4
v -5 0 4
v -4 0 4
v -3 0 4
v 3 0 4
v 4 0 4
v 5 0 4
v 6 0 4
v -6 0 3
v -4 0 3
v 4 0 3
v 6 0 3
v -6 0 -3
v -4 0 -3
v 4 0 -3
v 6 0 -3
v -6 0 -4
v -5 0 -4
v -4 0 -4
v -3 0 -4
v 3 0 -4
v 4 0 -4
v 5 0 -4
v 6 0 -4
v -5 0 -5
v -4 0 -5
v -3 0 -5
v -2 0 -5
v 2 0 -5
v 3 0 -5
v 4 0 -5
v 5 0 -5
v -6 0 -6
v -4 0 -6
v -2 0 -6
v 2 0 -6
v 4 0 -6
v 6 0 -6
v -6 4 5
v -5 4 5
v 5 4 5
v 6 4 5
v -6 4 4
v -5 4 4
v 5 4 4
v 6 4 4
v -6 4 3
v -5 4 3
v 5 4 3
v 6 4 3
v 5 4 2
v -6 4 -3
v -5 4 -3
v 5 4 -3
v 6 4 -3
v -6 4 -4
v -5 4 -4
v 5 4 -4
v 6 4 -4
v -5 4 -5
v -4 4 -5
v -3 4 -5
v -2 4 -5
v 2 4 -5
v 4 4 -5
v 5 4 -5
v -6 4 -6
v -4 4 -6
v -2 4 -6
v 2 4 -6
v 4 4 -6
v 6 4 -6
v -6 1 5
v -5 1 5
v 5 1 5
v 6 1 5
v -6 1 4
v -5 1 4
v 5 1 4
v 6 1 4
v -6 1 3
v -5 1 3
v 5 1 3
v 6 1 3
v -6 1 -3
v -5 1 -3
v 5 1 -3
v 6 1 -3
v -6 1 -4
v -5 1 -4
v 5 1 -4
v 6 1 -4
v -5 1 -5
v -4 1 -5
v -2 1 -5
v 2 1 -5
v 4 1 -5
v 5 1 -5
v -6 1 -6
v -4 1 -6
v -2 1 -6
v 2 1 -6
v 4 1 -6
v 6 1 -6
v -6 5 6
v -4 5 6
v -2 5 6
v 2 5 6
v 4 5 6
v 6 5 6
v -5 5 5
v -4 5 5
v -3 5 5
v -2 5 5
v 2 5 5
v 3 5 5
v 4 5 5
v 5 5 5
v -6 5 4
v -5 5 4
v -4 5 4
v -3 5 4
v 3 5 4
v 4 5 4
v 5 5 4
v 6 5 4
v -6 5 3
v -4 5 3
v -3 5 3
v -2 5 3
v 2 5 3
v 3 5 3
v 4 5 3
v 6 5 3
v -2 5 2
v -1 5 2
v 1 5 2
v 2 5 2
v -3 5 1
v -1 5 1
v 1 5 1
v 3 5 1
v -3 5 -1
v -1 5 -1
v 1 5 -1
v 3 5 -1
v -2 5 -2
v -1 5 -2
v 1 5 -2
v 2 5 -2
v -6 5 -3
v -4 5 -3
v -3 5 -3
v -2 5 -3
v 2 5 -3
v 3 5 -3
v 4 5 -3
v 6 5 -3
v -6 5 -4
v -5 5 -4
v -4 5 -4
v -3 5 -4
v 3 5 -4
v 4 5 -4
v 5 5 -4
v 6 5 -4
v -5 5 -5
v -4 5 -5
v -3 5 -5
v -2 5 -5
v 2 5 -5
v 3 5 -5
v 4 5 -5
v 5 5 -5
v -6 5 -6
v -4 5 -6
v -2 5 -6
v 2 5 -6
v 4 5 -6
v 6 5 -6

# faces
f 7/5/1 2/5/1 1/5/1
f 8/2/1 3/2/1 2/2/1
f 8/5/1 2/5/1 7/5/1
f 9/5/1 4/5/1 3/5/1
f 9/2/1 3/2/1 8/2/1
f 10/2/1 5/2/1 4/2/1
f 10/5/1 4/5/1 9/5/1
f 11/5/1 6/5/1 5/5/1
f 11/2/1 5/2/1 10/2/1
f 12/5/1 6/5/1 11/5/1
f 13/5/1 7/5/1 1/5/1
f 19/5/1 13/5/1 1/5/1
f 19/5/1 14/5/1 13/5/1
f 20/2/1 15/2/1 14/2/1
f 20/5/1 14/5/1 19/5/1
f 21/5/1 16/5/1 15/5/1
f 21/2/1 15/2/1 20/2/1
f 22/2/1 17/2/1 16/2/1
f 22/5/1 16/5/1 21/5/1
f 23/5/1 18/5/1 17/5/1
f 23/2/1 17/2/1 22/2/1
f 24/5/1 18/5/1 23/5/1
f 31/1/1 26/1/1 25/1/1
f 31/1/1 30/1/1 29/1/1
f 31/1/1 29/1/1 28/1/1
f 31/1/1 28/1/1 27/1/1
f 31/1/1 27/1/1 26/1/1
f 32/1/1 30/1/1 31/1/1
f 33/1/1 30/1/1 32/1/1
f 34/1/1 30/1/1 33/1/1
f 35/1/1 30/1/1 34/1/1
f 36/1/1 30/1/1 35/1/1
f 37/6/1 32/6/1 31/6/1
f 38/6/1 32/6/1 37/6/1
f 39/6/1 32/6/1 38/6/1
f 40/1/1 33/1/1 32/1/1
f 40/6/1 32/6/1 39/6/1
f 41/6/1 34/6/1 33/6/1
f 41/1/1 33/1/1 40/1/1
f 42/1/1 35/1/1 34/1/1
f 42/6/1 34/6/1 41/6/1
f 43/6/1 36/6/1 35/6/1
f 43/1/1 35/1/1 42/1/1
f 44/6/1 36/6/1 43/6/1
f 45/7/1 38/7/1 37/7/1
f 46/1/1 39/1/1 38/1/1
f 46/7/1 38/7/1 45/7/1
f 47/7/1 40/7/1 39/7/1
f 47/1/1 39/1/1 46/1/1
f 47/7/1 41/7/1 40/7/1
f 47/7/1 44/7/1 43/7/1
f 47/7/1 43/7/1 42/7/1
f 47/7/1 42/7/1 41/7/1
f 48/7/1 44/7/1 47/7/1
f 49/7/1 44/7/1 48/7/1
f 50/7/1 44/7/1 49/7/1
f 51/1/2 52/1/2 57/1/2
f 55/1/2 56/1/2 57/1/2
f 54/1/2 55/1/2 57/1/2
f 53/1/2 54/1/2 57/1/2
f 52/1/2 53/1/2 57/1/2
f 57/1/2 56/1/2 58/1/2
f 58/1/2 56/1/2 59/1/2
f 59/1/2 56/1/2 60/1/2
f 60/1/2 56/1/2 61/1/2
f 61/1/2 56/1/2 62/1/2
f 57/6/2 58/6/2 63/6/2
f 63/6/2 58/6/2 64/6/2
f 64/6/2 58/6/2 65/6/2
f 58/1/2 59/1/2 66/1/2
f 65/6/2 58/6/2 66/6/2
f 59/6/2 60/6/2 67/6/2
f 66/1/2 59/1/2 67/1/2
f 60/1/2 61/1/2 68/1/2
f 67/6/2 60/6/2 68/6/2
f 61/6/2 62/6/2 69/6/2
f 68/1/2 61/1/2 69/1/2
f 69/6/2 62/6/2 70/6/2
f 63/7/2 64/7/2 71/7/2
f 71/7/2 64/7/2 72/7/2
f 64/1/2 65/1/2 73/1/2
f 72/7/2 64/7/2 73/7/2
f 65/7/2 66/7/2 74/7/2
f 73/1/2 65/1/2 74/1/2
f 66/7/2 67/7/2 74/7/2
f 67/7/2 68/7/2 74/7/2
f 69/7/2 70/7/2 74/7/2
f 68/7/2 69/7/2 74/7/2
f 74/7/2 70/7/2 75/7/2
f 75/7/2 70/7/2 76/7/2
f 76/7/2 70/7/2 77/7/2
f 78/5/2 79/5/2 84/5/2
f 79/2/2 80/2/2 85/2/2
f 84/5/2 79/5/2 85/5/2
f 80/5/2 81/5/2 86/5/2
f 85/2/2 80/2/2 86/2/2
f 81/2/2 82/2/2 87/2/2
f 86/5/2 81/5/2 87/5/2
f 82/5/2 83/5/2 88/5/2
f 87/2/2 82/2/2 88/2/2
f 88/5/2 83/5/2 89/5/2
f 78/5/2 84/5/2 90/5/2
f 78/5/2 90/5/2 96/5/2
f 90/5/2 91/5/2 96/5/2
f 91/2/2 92/2/2 97/2/2
f 96/5/2 91/5/2 97/5/2
f 92/5/2 93/5/2 98/5/2
f 97/2/2 92/2/2 98/2/2
f 93/2/2 94/2/2 99/2/2
f 98/5/2 93/5/2 99/5/2
f 94/5/2 95/5/2 100/5/2
f 99/2/2 94/2/2 100/2/2
f 100/5/2 95/5/2 101/5/2
f 104/5/3 103/5/3 102/5/3
f 105/5/3 103/5/3 104/5/3
f 106/5/3 104/5/3 102/5/3
f 107/4/3 105/4/3 104/4/3
f 107/5/3 104/5/3 106/5/3
f 108/5/3 103/5/3 105/5/3
f 108/4/3 105/4/3 107/4/3
f 109/5/3 103/5/3 108/5/3
f 110/2/3 107/2/3 106/2/3
f 110/2/3 108/2/3 107/2/3
f 110/2/3 109/2/3 108/2/3
f 111/2/3 109/2/3 110/2/3
f 112/5/3 111/5/3 110/5/3
f 113/5/3 111/5/3 112/5/3
f 114/5/3 112/5/3 110/5/3
f 114/4/3 113/4/3 112/4/3
f 115/5/3 111/5/3 113/5/3
f 115/4/3 113/4/3 114/4/3
f 116/5/3 114/5/3 110/5/3
f 116/5/3 115/5/3 114/5/3
f 117/5/3 111/5/3 115/5/3
f 117/5/3 115/5/3 116/5/3
f 118/2/3 117/2/3 116/2/3
f 119/2/3 117/2/3 118/2/3
f 120/2/3 117/2/3 119/2/3
f 121/2/3 117/2/3 120/2/3
f 122/5/3 119/5/3 118/5/3
f 122/4/3 120/4/3 119/4/3
f 123/5/3 121/5/3 120/5/3
f 123/4/3 120/4/3 122/4/3
f 124/5/3 122/5/3 118/5/3
f 124/5/3 123/5/3 122/5/3
f 125/5/3 121/5/3 123/5/3
f 125/5/3 123/5/3 124/5/3
f 126/5/4 127/5/4 128/5/4
f 128/5/4 127/5/4 129/5/4
f 129/5/4 127/5/4 130/5/4
f 130/5/4 127/5/4 131/5/4
f 132/5/4 133/5/4 136/5/4
f 134/5/4 135/5/4 136/5/4
f 133/5/4 134/5/4 136/5/4
f 136/5/4 135/5/4 137/5/4
f 138/1/4 139/1/4 142/1/4
f 140/7/4 141/7/4 143/7/4
f 139/6/4 140/6/4 144/6/4
f 140/7/4 143/7/4 144/7/4
f 144/7/4 143/7/4 145/7/4
f 142/1/4 139/1/4 146/1/4
f 139/6/4 144/6/4 147/6/4
f 144/1/4 145/1/4 147/1/4
f 147/1/4 145/1/4 148/1/4
f 146/1/4 139/1/4 149/1/4
f 139/6/4 147/6/4 149/6/4
f 147/7/4 148/7/4 150/7/4
f 149/6/4 147/6/4 150/6/4
f 146/1/4 149/1/4 151/1/4
f 149/1/4 150/1/4 151/1/4
f 151/1/4 150/1/4 152/1/4
f 150/7/4 148/7/4 153/7/4
f 152/1/4 150/1/4 153/1/4
f 153/7/4 148/7/4 154/7/4
f 151/1/4 152/1/4 155/1/4
f 153/7/4 154/7/4 156/7/4
f 155/1/4 152/1/4 157/1/4
f 152/6/4 153/6/4 158/6/4
f 157/1/4 152/1/4 158/1/4
f 153/7/4 156/7/4 159/7/4
f 158/6/4 153/6/4 159/6/4
f 159/7/4 156/7/4 160/7/4
f 161/5/4 162/5/4 165/5/4
f 165/5/4 162/5/4 166/5/4
f 163/5/4 164/5/4 167/5/4
f 167/5/4 164/5/4 168/5/4
f 165/2/4 166/2/4 169/2/4
f 169/2/4 166/2/4 170/2/4
f 167/2/4 168/2/4 171/2/4
f 171/2/4 168/2/4 172/2/4
f 169/5/4 170/5/4 173/5/4
f 173/5/4 170/5/4 174/5/4
f 171/5/4 172/5/4 175/5/4
f 175/5/4 172/5/4 176/5/4
f 173/2/4 174/2/4 177/2/4
f 177/2/4 174/2/4 178/2/4
f 175/2/4 176/2/4 179/2/4
f 179/2/4 176/2/4 180/2/4
f 177/5/4 178/5/4 181/5/4
f 181/5/4 178/5/4 182/5/4
f 179/5/4 180/5/4 183/5/4
f 183/5/4 180/5/4 184/5/4
f 191/5/5 186/5/5 185/5/5
f 192/2/5 187/2/5 186/2/5
f 192/5/5 186/5/5 191/5/5
f 193/2/5 187/2/5 192/2/5
f 194/5/5 188/5/5 187/5/5
f 194/2/5 187/2/5 193/2/5
f 195/2/5 189/2/5 188/2/5
f 195/5/5 188/5/5 194/5/5
f 196/2/5 189/2/5 195/2/5
f 197/5/5 190/5/5 189/5/5
f 197/2/5 189/2/5 196/2/5
f 198/5/5 190/5/5 197/5/5
f 199/5/5 191/5/5 185/5/5
f 200/2/5 193/2/5 192/2/5
f 200/5/5 191/5/5 199/5/5
f 200/2/5 192/2/5 191/2/5
f 201/2/5 193/2/5 200/2/5
f 202/5/5 196/5/5 195/5/5
f 202/2/5 193/2/5 201/2/5
f 202/5/5 194/5/5 193/5/5
f 202/5/5 195/5/5 194/5/5
f 203/2/5 198/2/5 197/2/5
f 203/5/5 196/5/5 202/5/5
f 203/2/5 197/2/5 196/2/5
f 204/2/5 198/2/5 203/2/5
f 205/5/5 190/5/5 198/5/5
f 205/2/5 198/2/5 204/2/5
f 206/5/5 190/5/5 205/5/5
f 207/2/5 201/2/5 200/2/5
f 207/2/5 200/2/5 199/2/5
f 208/5/5 204/5/5 203/5/5
f 208/2/5 201/2/5 207/2/5
f 208/5/5 202/5/5 201/5/5
f 208/5/5 203/5/5 202/5/5
f 209/2/5 206/2/5 205/2/5
f 209/5/5 204/5/5 208/5/5
f 209/2/5 205/2/5 204/2/5
f 210/2/5 206/2/5 209/2/5
f 211/5/5 208/5/5 207/5/5
f 211/5/5 209/5/5 208/5/5
f 211/5/5 210/5/5 209/5/5
f 212/5/5 210/5/5 211/5/5
f 213/5/5 210/5/5 212/5/5
f 214/5/5 210/5/5 213/5/5
f 215/2/5 212/2/5 211/2/5
f 216/2/5 212/2/5 215/2/5
f 217/5/5 213/5/5 212/5/5
f 217/2/5 212/2/5 216/2/5
f 218/5/5 213/5/5 217/5/5
f 219/5/5 213/5/5 218/5/5
f 220/2/5 214/2/5 213/2/5
f 220/5/5 213/5/5 219/5/5
f 221/2/5 214/2/5 220/2/5
f 222/2/5 214/2/5 221/2/5
f 223/5/5 216/5/5 215/5/5
f 223/2/5 217/2/5 216/2/5
f 223/2/5 218/2/5 217/2/5
f 224/2/5 218/2/5 223/2/5
f 225/5/5 219/5/5 218/5/5
f 225/2/5 218/2/5 224/2/5
f 226/5/5 219/5/5 225/5/5
f 227/5/5 219/5/5 226/5/5
f 228/2/5 221/2/5 220/2/5
f 228/5/5 219/5/5 227/5/5
f 228/2/5 220/2/5 219/2/5
f 229/2/5 221/2/5 228/2/5
f 230/5/5 222/5/5 221/5/5
f 230/2/5 221/2/5 229/2/5
f 231/5/5 224/5/5 223/5/5
f 231/5/5 223/5/5 215/5/5
f 232/2/5 226/2/5 225/2/5
f 232/5/5 224/5/5 231/5/5
f 232/2/5 225/2/5 224/2/5
f 233/5/5 227/5/5 226/5/5
f 233/2/5 226/2/5 232/2/5
f 234/2/5 229/2/5 228/2/5
f 234/5/5 227/5/5 233/5/5
f 234/2/5 228/2/5 227/2/5
f 235/5/5 230/5/5 229/5/5
f 235/2/5 229/2/5 234/2/5
f 236/5/5 222/5/5 230/5/5
f 236/5/5 230/5/5 235/5/5
f 241/5/5 238/5/5 237/5/5
f 242/5/5 238/5/5 241/5/5
f 243/5/5 240/5/5 239/5/5
f 244/5/5 240/5/5 243/5/5
f 245/2/5 242/2/5 241/2/5
f 246/2/5 242/2/5 245/2/5
f 247/2/5 244/2/5 243/2/5
f 248/2/5 244/2/5 247/2/5
f 249/5/5 248/5/5 247/5/5
f 250/5/5 246/5/5 245/5/5
f 251/5/5 246/5/5 250/5/5
f 252/5/5 248/5/5 249/5/5
f 253/5/5 248/5/5 252/5/5
f 254/2/5 251/2/5 250/2/5
f 255/2/5 251/2/5 254/2/5
f 256/2/5 253/2/5 252/2/5
f 257/2/5 253/2/5 256/2/5
f 258/5/5 255/5/5 254/5/5
f 264/5/5 257/5/5 256/5/5
f 265/5/5 258/5/5 254/5/5
f 265/5/5 259/5/5 258/5/5
f 266/2/5 260/2/5 259/2/5
f 266/5/5 259/5/5 265/5/5
f 266/2/5 261/2/5 260/2/5
f 267/5/5 262/5/5 261/5/5
f 267/2/5 261/2/5 266/2/5
f 268/2/5 263/2/5 262/2/5
f 268/5/5 262/5/5 267/5/5
f 269/5/5 264/5/5 263/5/5
f 269/2/5 263/2/5 268/2/5
f 270/5/5 257/5/5 264/5/5
f 270/5/5 264/5/5 269/5/5
f 271/5/6 272/5/6 275/5/6
f 275/5/6 272/5/6 276/5/6
f 273/5/6 274/5/6 277/5/6
f 277/5/6 274/5/6 278/5/6
f 275/2/6 276/2/6 279/2/6
f 279/2/6 276/2/6 280/2/6
f 277/2/6 278/2/6 281/2/6
f 281/2/6 278/2/6 282/2/6
f 279/5/6 280/5/6 283/5/6
f 283/5/6 280/5/6 284/5/6
f 281/5/6 282/5/6 285/5/6
f 285/5/6 282/5/6 286/5/6
f 283/2/6 284/2/6 287/2/6
f 287/2/6 284/2/6 288/2/6
f 285/2/6 286/2/6 289/2/6
f 289/2/6 286/2/6 290/2/6
f 287/5/6 288/5/6 291/5/6
f 289/5/6 290/5/6 296/5/6
f 287/5/6 291/5/6 297/5/6
f 291/5/6 292/5/6 297/5/6
f 292/2/6 293/2/6 298/2/6
f 297/5/6 292/5/6 298/5/6
f 293/5/6 294/5/6 299/5/6
f 298/2/6 293/2/6 299/2/6
f 294/2/6 295/2/6 300/2/6
f 299/5/6 294/5/6 300/5/6
f 295/5/6 296/5/6 301/5/6
f 300/2/6 295/2/6 301/2/6
f 296/5/6 290/5/6 302/5/6
f 301/5/6 296/5/6 302/5/6
f 303/5/6 304/5/6 309/5/6
f 304/2/6 305/2/6 310/2/6
f 309/5/6 304/5/6 310/5/6
f 310/2/6 305/2/6 311/2/6
f 305/5/6 306/5/6 312/5/6
f 311/2/6 305/2/6 312/2/6
f 306/2/6 307/2/6 313/2/6
f 312/5/6 306/5/6 313/5/6
f 313/2/6 307/2/6 314/2/6
f 307/5/6 308/5/6 315/5/6
f 314/2/6 307/2/6 315/2/6
f 315/5/6 308/5/6 316/5/6
f 303/5/6 309/5/6 317/5/6
f 310/2/6 311/2/6 318/2/6
f 317/5/6 309/5/6 318/5/6
f 309/2/6 310/2/6 318/2/6
f 318/2/6 311/2/6 319/2/6
f 313/5/6 314/5/6 320/5/6
f 319/2/6 311/2/6 320/2/6
f 311/5/6 312/5/6 320/5/6
f 312/5/6 313/5/6 320/5/6
f 315/2/6 316/2/6 321/2/6
f 320/5/6 314/5/6 321/5/6
f 314/2/6 315/2/6 321/2/6
f 321/2/6 316/2/6 322/2/6
f 316/5/6 308/5/6 323/5/6
f 322/2/6 316/2/6 323/2/6
f 323/5/6 308/5/6 324/5/6
f 318/2/6 319/2/6 325/2/6
f 317/2/6 318/2/6 325/2/6
f 321/5/6 322/5/6 326/5/6
f 325/2/6 319/2/6 326/2/6
f 319/5/6 320/5/6 326/5/6
f 320/5/6 321/5/6 326/5/6
f 326/5/6 322/5/6 327/5/6
f 327/5/6 322/5/6 328/5/6
f 328/5/6 322/5/6 329/5/6
f 329/5/6 322/5/6 330/5/6
f 323/2/6 324/2/6 331/2/6
f 330/5/6 322/5/6 331/5/6
f 322/2/6 323/2/6 331/2/6
f 331/2/6 324/2/6 332/2/6
f 328/5/6 329/5/6 333/5/6
f 327/4/6 328/4/6 333/4/6
f 333/5/6 329/5/6 334/5/6
f 334/5/6 329/5/6 335/5/6
f 329/4/6 330/4/6 336/4/6
f 335/5/6 329/5/6 336/5/6
f 325/5/6 326/5/6 337/5/6
f 326/5/6 327/5/6 337/5/6
f 327/4/6 333/4/6 337/4/6
f 333/4/6 334/4/6 337/4/6
f 334/5/6 335/5/6 338/5/6
f 337/4/6 334/4/6 338/4/6
f 335/4/6 336/4/6 339/4/6
f 338/5/6 335/5/6 339/5/6
f 336/4/6 330/4/6 340/4/6
f 339/4/6 336/4/6 340/4/6
f 331/5/6 332/5/6 340/5/6
f 330/5/6 331/5/6 340/5/6
f 325/5/6 337/5/6 341/5/6
f 338/5/6 339/5/6 341/5/6
f 339/5/6 340/5/6 341/5/6
f 337/5/6 338/5/6 341/5/6
f 341/5/6 340/5/6 342/5/6
f 342/5/6 340/5/6 343/5/6
f 340/5/6 332/5/6 344/5/6
f 343/5/6 340/5/6 344/5/6
f 341/4/6 342/4/6 345/4/6
f 342/5/6 343/5/6 346/5/6
f 345/4/6 342/4/6 346/4/6
f 343/4/6 344/4/6 347/4/6
f 346/5/6 343/5/6 347/5/6
f 347/4/6 344/4/6 348/4/6
f 325/5/6 341/5/6 349/5/6
f 349/5/6 341/5/6 350/5/6
f 341/4/6 345/4/6 351/4/6
f 350/5/6 341/5/6 351/5/6
f 345/5/6 346/5/6 352/5/6
f 351/4/6 345/4/6 352/4/6
f 346/5/6 347/5/6 352/5/6
f 347/5/6 348/5/6 352/5/6
f 348/4/6 344/4/6 353/4/6
f 352/5/6 348/5/6 353/5/6
f 344/5/6 332/5/6 354/5/6
f 353/4/6 344/4/6 354/4/6
f 354/5/6 332/5/6 355/5/6
f 355/5/6 332/5/6 356/5/6
f 349/2/6 350/2/6 357/2/6
f 357/2/6 350/2/6 358/2/6
f 351/5/6 352/5/6 359/5/6
f 358/2/6 350/2/6 359/2/6
f 352/5/6 353/5/6 359/5/6
f 350/5/6 351/5/6 359/5/6
f 353/5/6 354/5/6 359/5/6
f 354/5/6 355/5/6 359/5/6
f 359/5/6 355/5/6 360/5/6
f 360/5/6 355/5/6 361/5/6
f 355/2/6 356/2/6 362/2/6
f 361/5/6 355/5/6 362/5/6
f 362/2/6 356/2/6 363/2/6
f 363/2/6 356/2/6 364/2/6
f 357/5/6 358/5/6 365/5/6
f 358/2/6 359/2/6 365/2/6
f 359/2/6 360/2/6 365/2/6
f 365/2/6 360/2/6 366/2/6
f 360/5/6 361/5/6 367/5/6
f 366/2/6 360/2/6 367/2/6
f 367/5/6 361/5/6 368/5/6
f 368/5/6 361/5/6 369/5/6
f 362/2/6 363/2/6 370/2/6
f 369/5/6 361/5/6 370/5/6
f 361/2/6 362/2/6 370/2/6
f 370/2/6 363/2/6 371/2/6
f 363/5/6 364/5/6 372/5/6
f 371/2/6 363/2/6 372/2/6
f 365/5/6 366/5/6 373/5/6
f 357/5/6 365/5/6 373/5/6
f 367/2/6 368/2/6 374/2/6
f 373/5/6 366/5/6 374/5/6
f 366/2/6 367/2/6 374/2/6
f 368/5/6 369/5/6 375/5/6
f 374/2/6 368/2/6 375/2/6
f 370/2/6 371/2/6 376/2/6
f 375/5/6 369/5/6 376/5/6
f 369/2/6 370/2/6 376/2/6
f 371/5/6 372/5/6 377/5/6
f 376/2/6 371/2/6 377/2/6
f 372/5/6 364/5/6 378/5/6
f 377/5/6 372/5/6 378/5/6
