# MagicaVoxel @ Ephtracy

# material
mtllib stonegem.mtl
usemtl palette

# normals
vn -1 0 0
vn 1 0 0
vn 0 0 1
vn 0 0 -1
vn 0 -1 0
vn 0 1 0

# texcoords
vt 0.970703 0.5
vt 0.978516 0.5
vt 0.982422 0.5
vt 0.986328 0.5

# verts
v -3 3 1
v -3 3 -1
v -3 4 2
v -3 4 1
v -3 4 -1
v -3 4 -2
v -3 5 2
v -3 5 1
v -3 5 -1
v -3 5 -2
v -3 6 2
v -3 6 1
v -3 6 -1
v -3 6 -2
v -3 7 2
v -3 7 1
v -3 7 -1
v -3 7 -2
v -3 9 2
v -3 9 1
v -3 9 -1
v -3 9 -2
v -3 10 2
v -3 10 1
v -3 10 -1
v -3 10 -2
v -3 11 2
v -3 11 1
v -3 11 -1
v -3 11 -2
v -3 12 1
v -3 12 -1
v -2 2 1
v -2 2 -1
v -2 3 2
v -2 3 1
v -2 3 -1
v -2 3 -2
v -2 4 3
v -2 4 2
v -2 4 1
v -2 4 -1
v -2 4 -2
v -2 4 -3
v -2 5 3
v -2 5 2
v -2 5 -2
v -2 5 -3
v -2 6 3
v -2 6 2
v -2 6 -2
v -2 6 -3
v -2 7 3
v -2 7 2
v -2 7 -2
v -2 7 -3
v -2 9 3
v -2 9 2
v -2 9 -2
v -2 9 -3
v -2 10 3
v -2 10 2
v -2 10 -2
v -2 10 -3
v -2 11 3
v -2 11 2
v -2 11 1
v -2 11 -1
v -2 11 -2
v -2 11 -3
v -2 12 2
v -2 12 1
v -2 12 -1
v -2 12 -2
v -2 13 1
v -2 13 -1
v -1 1 1
v -1 1 -1
v -1 2 2
v -1 2 1
v -1 2 -1
v -1 2 -2
v -1 3 3
v -1 3 2
v -1 3 1
v -1 3 -1
v -1 3 -2
v -1 3 -3
v -1 4 3
v -1 4 2
v -1 4 -2
v -1 4 -3
v -1 11 3
v -1 11 2
v -1 11 -2
v -1 11 -3
v -1 12 3
v -1 12 2
v -1 12 1
v -1 12 -1
v -1 12 -2
v -1 12 -3
v -1 13 2
v -1 13 1
v -1 13 -1
v -1 13 -2
v -1 14 1
v -1 14 -1
v 1 1 1
v 1 1 -1
v 1 2 2
v 1 2 1
v 1 2 -1
v 1 2 -2
v 1 3 3
v 1 3 2
v 1 3 1
v 1 3 -1
v 1 3 -2
v 1 3 -3
v 1 4 3
v 1 4 2
v 1 4 -2
v 1 4 -3
v 1 11 3
v 1 11 2
v 1 11 -2
v 1 11 -3
v 1 12 3
v 1 12 2
v 1 12 1
v 1 12 -1
v 1 12 -2
v 1 12 -3
v 1 13 2
v 1 13 1
v 1 13 -1
v 1 13 -2
v 1 14 1
v 1 14 -1
v 2 2 1
v 2 2 -1
v 2 3 2
v 2 3 1
v 2 3 -1
v 2 3 -2
v 2 4 3
v 2 4 2
v 2 4 1
v 2 4 -1
v 2 4 -2
v 2 4 -3
v 2 5 3
v 2 5 2
v 2 5 -2
v 2 5 -3
v 2 6 3
v 2 6 2
v 2 6 -2
v 2 6 -3
v 2 7 3
v 2 7 2
v 2 7 -2
v 2 7 -3
v 2 9 3
v 2 9 2
v 2 9 -2
v 2 9 -3
v 2 10 3
v 2 10 2
v 2 10 -2
v 2 10 -3
v 2 11 3
v 2 11 2
v 2 11 1
v 2 11 -1
v 2 11 -2
v 2 11 -3
v 2 12 2
v 2 12 1
v 2 12 -1
v 2 12 -2
v 2 13 1
v 2 13 -1
v 3 3 1
v 3 3 -1
v 3 4 2
v 3 4 1
v 3 4 -1
v 3 4 -2
v 3 5 2
v 3 5 1
v 3 5 -1
v 3 5 -2
v 3 6 2
v 3 6 1
v 3 6 -1
v 3 6 -2
v 3 7 2
v 3 7 1
v 3 7 -1
v 3 7 -2
v 3 9 2
v 3 9 1
v 3 9 -1
v 3 9 -2
v 3 10 2
v 3 10 1
v 3 10 -1
v 3 10 -2
v 3 11 2
v 3 11 1
v 3 11 -1
v 3 11 -2
v 3 12 1
v 3 12 -1
v -2 4 3
v -2 5 3
v -2 6 3
v -2 7 3
v -2 9 3
v -2 10 3
v -2 11 3
v -1 3 3
v -1 4 3
v -1 5 3
v -1 6 3
v -1 7 3
v -1 9 3
v -1 10 3
v -1 11 3
v -1 12 3
v 1 3 3
v 1 4 3
v 1 5 3
v 1 6 3
v 1 7 3
v 1 9 3
v 1 10 3
v 1 11 3
v 1 12 3
v 2 4 3
v 2 5 3
v 2 6 3
v 2 7 3
v 2 9 3
v 2 10 3
v 2 11 3
v -3 4 2
v -3 5 2
v -3 6 2
v -3 7 2
v -3 9 2
v -3 10 2
v -3 11 2
v -2 3 2
v -2 4 2
v -2 5 2
v -2 6 2
v -2 7 2
v -2 9 2
v -2 10 2
v -2 11 2
v -2 12 2
v -1 2 2
v -1 3 2
v -1 4 2
v -1 11 2
v -1 12 2
v -1 13 2
v 1 2 2
v 1 3 2
v 1 4 2
v 1 11 2
v 1 12 2
v 1 13 2
v 2 3 2
v 2 4 2
v 2 5 2
v 2 6 2
v 2 7 2
v 2 9 2
v 2 10 2
v 2 11 2
v 2 12 2
v 3 4 2
v 3 5 2
v 3 6 2
v 3 7 2
v 3 9 2
v 3 10 2
v 3 11 2
v -3 3 1
v -3 4 1
v -3 11 1
v -3 12 1
v -2 2 1
v -2 3 1
v -2 4 1
v -2 11 1
v -2 12 1
v -2 13 1
v -1 1 1
v -1 2 1
v -1 3 1
v -1 12 1
v -1 13 1
v -1 14 1
v 1 1 1
v 1 2 1
v 1 3 1
v 1 12 1
v 1 13 1
v 1 14 1
v 2 2 1
v 2 3 1
v 2 4 1
v 2 11 1
v 2 12 1
v 2 13 1
v 3 3 1
v 3 4 1
v 3 11 1
v 3 12 1
v -3 3 -1
v -3 4 -1
v -3 11 -1
v -3 12 -1
v -2 2 -1
v -2 3 -1
v -2 4 -1
v -2 11 -1
v -2 12 -1
v -2 13 -1
v -1 1 -1
v -1 2 -1
v -1 3 -1
v -1 12 -1
v -1 13 -1
v -1 14 -1
v 1 1 -1
v 1 2 -1
v 1 3 -1
v 1 12 -1
v 1 13 -1
v 1 14 -1
v 2 2 -1
v 2 3 -1
v 2 4 -1
v 2 11 -1
v 2 12 -1
v 2 13 -1
v 3 3 -1
v 3 4 -1
v 3 11 -1
v 3 12 -1
v -3 4 -2
v -3 5 -2
v -3 6 -2
v -3 7 -2
v -3 9 -2
v -3 10 -2
v -3 11 -2
v -2 3 -2
v -2 4 -2
v -2 5 -2
v -2 6 -2
v -2 7 -2
v -2 9 -2
v -2 10 -2
v -2 11 -2
v -2 12 -2
v -1 2 -2
v -1 3 -2
v -1 4 -2
v -1 11 -2
v -1 12 -2
v -1 13 -2
v 1 2 -2
v 1 3 -2
v 1 4 -2
v 1 11 -2
v 1 12 -2
v 1 13 -2
v 2 3 -2
v 2 4 -2
v 2 5 -2
v 2 6 -2
v 2 7 -2
v 2 9 -2
v 2 10 -2
v 2 11 -2
v 2 12 -2
v 3 4 -2
v 3 5 -2
v 3 6 -2
v 3 7 -2
v 3 9 -2
v 3 10 -2
v 3 11 -2
v -2 4 -3
v -2 5 -3
v -2 6 -3
v -2 7 -3
v -2 9 -3
v -2 10 -3
v -2 11 -3
v -1 3 -3
v -1 4 -3
v -1 5 -3
v -1 6 -3
v -1 7 -3
v -1 9 -3
v -1 10 -3
v -1 11 -3
v -1 12 -3
v 1 3 -3
v 1 4 -3
v 1 5 -3
v 1 6 -3
v 1 7 -3
v 1 9 -3
v 1 10 -3
v 1 11 -3
v 1 12 -3
v 2 4 -3
v 2 5 -3
v 2 6 -3
v 2 7 -3
v 2 9 -3
v 2 10 -3
v 2 11 -3
v -1 1 1
v 1 1 1
v -1 1 -1
v 1 1 -1
v -1 2 2
v 1 2 2
v -2 2 1
v -1 2 1
v 1 2 1
v 2 2 1
v -2 2 -1
v -1 2 -1
v 1 2 -1
v 2 2 -1
v -1 2 -2
v 1 2 -2
v -1 3 3
v 1 3 3
v -2 3 2
v -1 3 2
v 1 3 2
v 2 3 2
v -3 3 1
v -2 3 1
v -1 3 1
v 1 3 1
v 2 3 1
v 3 3 1
v -3 3 -1
v -2 3 -1
v -1 3 -1
v 1 3 -1
v 2 3 -1
v 3 3 -1
v -2 3 -2
v -1 3 -2
v 1 3 -2
v 2 3 -2
v -1 3 -3
v 1 3 -3
v -2 4 3
v -1 4 3
v 1 4 3
v 2 4 3
v -3 4 2
v -2 4 2
v -1 4 2
v 1 4 2
v 2 4 2
v 3 4 2
v -3 4 1
v -2 4 1
v 2 4 1
v 3 4 1
v -3 4 -1
v -2 4 -1
v 2 4 -1
v 3 4 -1
v -3 4 -2
v -2 4 -2
v -1 4 -2
v 1 4 -2
v 2 4 -2
v 3 4 -2
v -2 4 -3
v -1 4 -3
v 1 4 -3
v 2 4 -3
v -2 11 3
v -1 11 3
v 1 11 3
v 2 11 3
v -3 11 2
v -2 11 2
v -1 11 2
v 1 11 2
v 2 11 2
v 3 11 2
v -3 11 1
v -2 11 1
v 2 11 1
v 3 11 1
v -3 11 -1
v -2 11 -1
v 2 11 -1
v 3 11 -1
v -3 11 -2
v -2 11 -2
v -1 11 -2
v 1 11 -2
v 2 11 -2
v 3 11 -2
v -2 11 -3
v -1 11 -3
v 1 11 -3
v 2 11 -3
v -1 12 3
v 1 12 3
v -2 12 2
v -1 12 2
v 1 12 2
v 2 12 2
v -3 12 1
v -2 12 1
v -1 12 1
v 1 12 1
v 2 12 1
v 3 12 1
v -3 12 -1
v -2 12 -1
v -1 12 -1
v 1 12 -1
v 2 12 -1
v 3 12 -1
v -2 12 -2
v -1 12 -2
v 1 12 -2
v 2 12 -2
v -1 12 -3
v 1 12 -3
v -1 13 2
v 1 13 2
v -2 13 1
v -1 13 1
v 1 13 1
v 2 13 1
v -2 13 -1
v -1 13 -1
v 1 13 -1
v 2 13 -1
v -1 13 -2
v 1 13 -2
v -1 14 1
v 1 14 1
v -1 14 -1
v 1 14 -1

# faces
f 4/4/1 2/4/1 1/4/1
f 5/4/1 2/4/1 4/4/1
f 7/4/1 4/4/1 3/4/1
f 7/4/1 6/4/1 5/4/1
f 7/4/1 5/4/1 4/4/1
f 8/4/1 6/4/1 7/4/1
f 9/4/1 6/4/1 8/4/1
f 10/4/1 6/4/1 9/4/1
f 11/3/1 8/3/1 7/3/1
f 12/4/1 9/4/1 8/4/1
f 12/3/1 8/3/1 11/3/1
f 13/3/1 10/3/1 9/3/1
f 13/4/1 9/4/1 12/4/1
f 14/3/1 10/3/1 13/3/1
f 15/4/1 12/4/1 11/4/1
f 16/3/1 13/3/1 12/3/1
f 16/4/1 12/4/1 15/4/1
f 17/4/1 14/4/1 13/4/1
f 17/3/1 13/3/1 16/3/1
f 18/4/1 14/4/1 17/4/1
f 19/2/1 16/2/1 15/2/1
f 20/4/1 17/4/1 16/4/1
f 20/2/1 16/2/1 19/2/1
f 21/2/1 18/2/1 17/2/1
f 21/4/1 17/4/1 20/4/1
f 22/2/1 18/2/1 21/2/1
f 23/4/1 20/4/1 19/4/1
f 24/3/1 21/3/1 20/3/1
f 24/4/1 20/4/1 23/4/1
f 25/4/1 22/4/1 21/4/1
f 25/3/1 21/3/1 24/3/1
f 26/4/1 22/4/1 25/4/1
f 27/3/1 24/3/1 23/3/1
f 28/4/1 25/4/1 24/4/1
f 28/3/1 24/3/1 27/3/1
f 29/3/1 26/3/1 25/3/1
f 29/4/1 25/4/1 28/4/1
f 30/3/1 26/3/1 29/3/1
f 31/4/1 29/4/1 28/4/1
f 32/4/1 29/4/1 31/4/1
f 36/3/1 34/3/1 33/3/1
f 37/3/1 34/3/1 36/3/1
f 40/2/1 36/2/1 35/2/1
f 41/2/1 36/2/1 40/2/1
f 42/2/1 38/2/1 37/2/1
f 43/2/1 38/2/1 42/2/1
f 45/4/1 40/4/1 39/4/1
f 46/4/1 40/4/1 45/4/1
f 47/4/1 44/4/1 43/4/1
f 48/4/1 44/4/1 47/4/1
f 49/3/1 46/3/1 45/3/1
f 50/3/1 46/3/1 49/3/1
f 51/3/1 48/3/1 47/3/1
f 52/3/1 48/3/1 51/3/1
f 53/2/1 50/2/1 49/2/1
f 54/2/1 50/2/1 53/2/1
f 55/2/1 52/2/1 51/2/1
f 56/2/1 52/2/1 55/2/1
f 57/4/1 54/4/1 53/4/1
f 58/4/1 54/4/1 57/4/1
f 59/4/1 56/4/1 55/4/1
f 60/4/1 56/4/1 59/4/1
f 61/2/1 58/2/1 57/2/1
f 62/2/1 58/2/1 61/2/1
f 63/2/1 60/2/1 59/2/1
f 64/2/1 60/2/1 63/2/1
f 65/3/1 62/3/1 61/3/1
f 66/3/1 62/3/1 65/3/1
f 69/3/1 64/3/1 63/3/1
f 70/3/1 64/3/1 69/3/1
f 71/2/1 67/2/1 66/2/1
f 72/2/1 67/2/1 71/2/1
f 73/2/1 69/2/1 68/2/1
f 74/2/1 69/2/1 73/2/1
f 75/3/1 73/3/1 72/3/1
f 76/3/1 73/3/1 75/3/1
f 80/4/1 78/4/1 77/4/1
f 81/4/1 78/4/1 80/4/1
f 84/3/1 80/3/1 79/3/1
f 85/3/1 80/3/1 84/3/1
f 86/3/1 82/3/1 81/3/1
f 87/3/1 82/3/1 86/3/1
f 89/4/1 84/4/1 83/4/1
f 90/4/1 84/4/1 89/4/1
f 91/4/1 88/4/1 87/4/1
f 92/4/1 88/4/1 91/4/1
f 97/4/1 94/4/1 93/4/1
f 98/4/1 94/4/1 97/4/1
f 101/4/1 96/4/1 95/4/1
f 102/4/1 96/4/1 101/4/1
f 103/3/1 99/3/1 98/3/1
f 104/3/1 99/3/1 103/3/1
f 105/3/1 101/3/1 100/3/1
f 106/3/1 101/3/1 105/3/1
f 107/4/1 105/4/1 104/4/1
f 108/4/1 105/4/1 107/4/1
f 109/4/2 110/4/2 112/4/2
f 112/4/2 110/4/2 113/4/2
f 111/3/2 112/3/2 116/3/2
f 116/3/2 112/3/2 117/3/2
f 113/3/2 114/3/2 118/3/2
f 118/3/2 114/3/2 119/3/2
f 115/4/2 116/4/2 121/4/2
f 121/4/2 116/4/2 122/4/2
f 119/4/2 120/4/2 123/4/2
f 123/4/2 120/4/2 124/4/2
f 125/4/2 126/4/2 129/4/2
f 129/4/2 126/4/2 130/4/2
f 127/4/2 128/4/2 133/4/2
f 133/4/2 128/4/2 134/4/2
f 130/3/2 131/3/2 135/3/2
f 135/3/2 131/3/2 136/3/2
f 132/3/2 133/3/2 137/3/2
f 137/3/2 133/3/2 138/3/2
f 136/4/2 137/4/2 139/4/2
f 139/4/2 137/4/2 140/4/2
f 141/3/2 142/3/2 144/3/2
f 144/3/2 142/3/2 145/3/2
f 143/2/2 144/2/2 148/2/2
f 148/2/2 144/2/2 149/2/2
f 145/2/2 146/2/2 150/2/2
f 150/2/2 146/2/2 151/2/2
f 147/4/2 148/4/2 153/4/2
f 153/4/2 148/4/2 154/4/2
f 151/4/2 152/4/2 155/4/2
f 155/4/2 152/4/2 156/4/2
f 153/3/2 154/3/2 157/3/2
f 157/3/2 154/3/2 158/3/2
f 155/3/2 156/3/2 159/3/2
f 159/3/2 156/3/2 160/3/2
f 157/2/2 158/2/2 161/2/2
f 161/2/2 158/2/2 162/2/2
f 159/2/2 160/2/2 163/2/2
f 163/2/2 160/2/2 164/2/2
f 161/4/2 162/4/2 165/4/2
f 165/4/2 162/4/2 166/4/2
f 163/4/2 164/4/2 167/4/2
f 167/4/2 164/4/2 168/4/2
f 165/2/2 166/2/2 169/2/2
f 169/2/2 166/2/2 170/2/2
f 167/2/2 168/2/2 171/2/2
f 171/2/2 168/2/2 172/2/2
f 169/3/2 170/3/2 173/3/2
f 173/3/2 170/3/2 174/3/2
f 171/3/2 172/3/2 177/3/2
f 177/3/2 172/3/2 178/3/2
f 174/2/2 175/2/2 179/2/2
f 179/2/2 175/2/2 180/2/2
f 176/2/2 177/2/2 181/2/2
f 181/2/2 177/2/2 182/2/2
f 180/3/2 181/3/2 183/3/2
f 183/3/2 181/3/2 184/3/2
f 185/4/2 186/4/2 188/4/2
f 188/4/2 186/4/2 189/4/2
f 187/4/2 188/4/2 191/4/2
f 189/4/2 190/4/2 191/4/2
f 188/4/2 189/4/2 191/4/2
f 191/4/2 190/4/2 192/4/2
f 192/4/2 190/4/2 193/4/2
f 193/4/2 190/4/2 194/4/2
f 191/3/2 192/3/2 195/3/2
f 192/4/2 193/4/2 196/4/2
f 195/3/2 192/3/2 196/3/2
f 193/3/2 194/3/2 197/3/2
f 196/4/2 193/4/2 197/4/2
f 197/3/2 194/3/2 198/3/2
f 195/4/2 196/4/2 199/4/2
f 196/3/2 197/3/2 200/3/2
f 199/4/2 196/4/2 200/4/2
f 197/4/2 198/4/2 201/4/2
f 200/3/2 197/3/2 201/3/2
f 201/4/2 198/4/2 202/4/2
f 199/2/2 200/2/2 203/2/2
f 200/4/2 201/4/2 204/4/2
f 203/2/2 200/2/2 204/2/2
f 201/2/2 202/2/2 205/2/2
f 204/4/2 201/4/2 205/4/2
f 205/2/2 202/2/2 206/2/2
f 203/4/2 204/4/2 207/4/2
f 204/3/2 205/3/2 208/3/2
f 207/4/2 204/4/2 208/4/2
f 205/4/2 206/4/2 209/4/2
f 208/3/2 205/3/2 209/3/2
f 209/4/2 206/4/2 210/4/2
f 207/3/2 208/3/2 211/3/2
f 208/4/2 209/4/2 212/4/2
f 211/3/2 208/3/2 212/3/2
f 209/3/2 210/3/2 213/3/2
f 212/4/2 209/4/2 213/4/2
f 213/3/2 210/3/2 214/3/2
f 212/4/2 213/4/2 215/4/2
f 215/4/2 213/4/2 216/4/2
f 225/4/3 218/4/3 217/4/3
f 226/3/3 219/3/3 218/3/3
f 226/4/3 218/4/3 225/4/3
f 227/2/3 220/2/3 219/2/3
f 227/3/3 219/3/3 226/3/3
f 228/4/3 221/4/3 220/4/3
f 228/2/3 220/2/3 227/2/3
f 229/2/3 222/2/3 221/2/3
f 229/4/3 221/4/3 228/4/3
f 230/3/3 223/3/3 222/3/3
f 230/2/3 222/2/3 229/2/3
f 231/3/3 223/3/3 230/3/3
f 233/4/3 225/4/3 224/4/3
f 233/4/3 226/4/3 225/4/3
f 233/4/3 227/4/3 226/4/3
f 233/4/3 228/4/3 227/4/3
f 234/4/3 228/4/3 233/4/3
f 235/4/3 228/4/3 234/4/3
f 236/4/3 228/4/3 235/4/3
f 237/3/3 229/3/3 228/3/3
f 237/4/3 228/4/3 236/4/3
f 238/4/3 232/4/3 231/4/3
f 238/3/3 229/3/3 237/3/3
f 238/4/3 231/4/3 230/4/3
f 238/4/3 230/4/3 229/4/3
f 239/4/3 232/4/3 238/4/3
f 240/4/3 232/4/3 239/4/3
f 241/4/3 232/4/3 240/4/3
f 242/4/3 235/4/3 234/4/3
f 243/3/3 236/3/3 235/3/3
f 243/4/3 235/4/3 242/4/3
f 244/2/3 237/2/3 236/2/3
f 244/3/3 236/3/3 243/3/3
f 245/4/3 238/4/3 237/4/3
f 245/2/3 237/2/3 244/2/3
f 246/2/3 239/2/3 238/2/3
f 246/4/3 238/4/3 245/4/3
f 247/3/3 240/3/3 239/3/3
f 247/2/3 239/2/3 246/2/3
f 248/3/3 240/3/3 247/3/3
f 257/4/3 250/4/3 249/4/3
f 258/3/3 251/3/3 250/3/3
f 258/4/3 250/4/3 257/4/3
f 259/4/3 252/4/3 251/4/3
f 259/3/3 251/3/3 258/3/3
f 260/2/3 253/2/3 252/2/3
f 260/4/3 252/4/3 259/4/3
f 261/4/3 254/4/3 253/4/3
f 261/2/3 253/2/3 260/2/3
f 262/3/3 255/3/3 254/3/3
f 262/4/3 254/4/3 261/4/3
f 263/3/3 255/3/3 262/3/3
f 266/2/3 257/2/3 256/2/3
f 267/2/3 257/2/3 266/2/3
f 268/2/3 264/2/3 263/2/3
f 269/2/3 264/2/3 268/2/3
f 271/3/3 266/3/3 265/3/3
f 272/3/3 266/3/3 271/3/3
f 275/3/3 270/3/3 269/3/3
f 276/3/3 270/3/3 275/3/3
f 277/2/3 273/2/3 272/2/3
f 278/2/3 273/2/3 277/2/3
f 284/2/3 275/2/3 274/2/3
f 285/2/3 275/2/3 284/2/3
f 286/4/3 279/4/3 278/4/3
f 287/3/3 280/3/3 279/3/3
f 287/4/3 279/4/3 286/4/3
f 288/4/3 281/4/3 280/4/3
f 288/3/3 280/3/3 287/3/3
f 289/2/3 282/2/3 281/2/3
f 289/4/3 281/4/3 288/4/3
f 290/4/3 283/4/3 282/4/3
f 290/2/3 282/2/3 289/2/3
f 291/3/3 284/3/3 283/3/3
f 291/4/3 283/4/3 290/4/3
f 292/3/3 284/3/3 291/3/3
f 298/4/3 294/4/3 293/4/3
f 299/4/3 294/4/3 298/4/3
f 300/4/3 296/4/3 295/4/3
f 301/4/3 296/4/3 300/4/3
f 304/3/3 298/3/3 297/3/3
f 305/3/3 298/3/3 304/3/3
f 306/3/3 302/3/3 301/3/3
f 307/3/3 302/3/3 306/3/3
f 309/4/3 304/4/3 303/4/3
f 310/4/3 304/4/3 309/4/3
f 313/4/3 308/4/3 307/4/3
f 314/4/3 308/4/3 313/4/3
f 315/3/3 311/3/3 310/3/3
f 316/3/3 311/3/3 315/3/3
f 319/3/3 313/3/3 312/3/3
f 320/3/3 313/3/3 319/3/3
f 321/4/3 317/4/3 316/4/3
f 322/4/3 317/4/3 321/4/3
f 323/4/3 319/4/3 318/4/3
f 324/4/3 319/4/3 323/4/3
f 325/4/4 326/4/4 330/4/4
f 330/4/4 326/4/4 331/4/4
f 327/4/4 328/4/4 332/4/4
f 332/4/4 328/4/4 333/4/4
f 329/3/4 330/3/4 336/3/4
f 336/3/4 330/3/4 337/3/4
f 333/3/4 334/3/4 338/3/4
f 338/3/4 334/3/4 339/3/4
f 335/4/4 336/4/4 341/4/4
f 341/4/4 336/4/4 342/4/4
f 339/4/4 340/4/4 345/4/4
f 345/4/4 340/4/4 346/4/4
f 342/3/4 343/3/4 347/3/4
f 347/3/4 343/3/4 348/3/4
f 344/3/4 345/3/4 351/3/4
f 351/3/4 345/3/4 352/3/4
f 348/4/4 349/4/4 353/4/4
f 353/4/4 349/4/4 354/4/4
f 350/4/4 351/4/4 355/4/4
f 355/4/4 351/4/4 356/4/4
f 357/4/4 358/4/4 365/4/4
f 358/3/4 359/3/4 366/3/4
f 365/4/4 358/4/4 366/4/4
f 359/4/4 360/4/4 367/4/4
f 366/3/4 359/3/4 367/3/4
f 360/2/4 361/2/4 368/2/4
f 367/4/4 360/4/4 368/4/4
f 361/4/4 362/4/4 369/4/4
f 368/2/4 361/2/4 369/2/4
f 362/3/4 363/3/4 370/3/4
f 369/4/4 362/4/4 370/4/4
f 370/3/4 363/3/4 371/3/4
f 364/2/4 365/2/4 374/2/4
f 374/2/4 365/2/4 375/2/4
f 371/2/4 372/2/4 376/2/4
f 376/2/4 372/2/4 377/2/4
f 373/3/4 374/3/4 379/3/4
f 379/3/4 374/3/4 380/3/4
f 377/3/4 378/3/4 383/3/4
f 383/3/4 378/3/4 384/3/4
f 380/2/4 381/2/4 385/2/4
f 385/2/4 381/2/4 386/2/4
f 382/2/4 383/2/4 392/2/4
f 392/2/4 383/2/4 393/2/4
f 386/4/4 387/4/4 394/4/4
f 387/3/4 388/3/4 395/3/4
f 394/4/4 387/4/4 395/4/4
f 388/4/4 389/4/4 396/4/4
f 395/3/4 388/3/4 396/3/4
f 389/2/4 390/2/4 397/2/4
f 396/4/4 389/4/4 397/4/4
f 390/4/4 391/4/4 398/4/4
f 397/2/4 390/2/4 398/2/4
f 391/3/4 392/3/4 399/3/4
f 398/4/4 391/4/4 399/4/4
f 399/3/4 392/3/4 400/3/4
f 401/4/4 402/4/4 409/4/4
f 402/3/4 403/3/4 410/3/4
f 409/4/4 402/4/4 410/4/4
f 403/2/4 404/2/4 411/2/4
f 410/3/4 403/3/4 411/3/4
f 404/4/4 405/4/4 412/4/4
f 411/2/4 404/2/4 412/2/4
f 405/2/4 406/2/4 413/2/4
f 412/4/4 405/4/4 413/4/4
f 406/3/4 407/3/4 414/3/4
f 413/2/4 406/2/4 414/2/4
f 414/3/4 407/3/4 415/3/4
f 408/4/4 409/4/4 417/4/4
f 409/4/4 410/4/4 417/4/4
f 410/4/4 411/4/4 417/4/4
f 411/4/4 412/4/4 417/4/4
f 417/4/4 412/4/4 418/4/4
f 418/4/4 412/4/4 419/4/4
f 419/4/4 412/4/4 420/4/4
f 412/3/4 413/3/4 421/3/4
f 420/4/4 412/4/4 421/4/4
f 415/4/4 416/4/4 422/4/4
f 421/3/4 413/3/4 422/3/4
f 414/4/4 415/4/4 422/4/4
f 413/4/4 414/4/4 422/4/4
f 422/4/4 416/4/4 423/4/4
f 423/4/4 416/4/4 424/4/4
f 424/4/4 416/4/4 425/4/4
f 418/4/4 419/4/4 426/4/4
f 419/3/4 420/3/4 427/3/4
f 426/4/4 419/4/4 427/4/4
f 420/2/4 421/2/4 428/2/4
f 427/3/4 420/3/4 428/3/4
f 421/4/4 422/4/4 429/4/4
f 428/2/4 421/2/4 429/2/4
f 422/2/4 423/2/4 430/2/4
f 429/4/4 422/4/4 430/4/4
f 423/3/4 424/3/4 431/3/4
f 430/2/4 423/2/4 431/2/4
f 431/3/4 424/3/4 432/3/4
f 435/4/5 434/4/5 433/4/5
f 436/4/5 434/4/5 435/4/5
f 440/3/5 438/3/5 437/3/5
f 441/3/5 438/3/5 440/3/5
f 443/3/5 440/3/5 439/3/5
f 444/3/5 440/3/5 443/3/5
f 445/3/5 442/3/5 441/3/5
f 446/3/5 442/3/5 445/3/5
f 447/3/5 445/3/5 444/3/5
f 448/3/5 445/3/5 447/3/5
f 452/4/5 450/4/5 449/4/5
f 453/4/5 450/4/5 452/4/5
f 456/2/5 452/2/5 451/2/5
f 457/2/5 452/2/5 456/2/5
f 458/2/5 454/2/5 453/2/5
f 459/2/5 454/2/5 458/2/5
f 461/4/5 456/4/5 455/4/5
f 462/4/5 456/4/5 461/4/5
f 465/4/5 460/4/5 459/4/5
f 466/4/5 460/4/5 465/4/5
f 467/2/5 463/2/5 462/2/5
f 468/2/5 463/2/5 467/2/5
f 469/2/5 465/2/5 464/2/5
f 470/2/5 465/2/5 469/2/5
f 471/4/5 469/4/5 468/4/5
f 472/4/5 469/4/5 471/4/5
f 478/4/5 474/4/5 473/4/5
f 479/4/5 474/4/5 478/4/5
f 480/4/5 476/4/5 475/4/5
f 481/4/5 476/4/5 480/4/5
f 483/4/5 478/4/5 477/4/5
f 484/4/5 478/4/5 483/4/5
f 485/4/5 482/4/5 481/4/5
f 486/4/5 482/4/5 485/4/5
f 491/4/5 488/4/5 487/4/5
f 492/4/5 488/4/5 491/4/5
f 495/4/5 490/4/5 489/4/5
f 496/4/5 490/4/5 495/4/5
f 497/4/5 493/4/5 492/4/5
f 498/4/5 493/4/5 497/4/5
f 499/4/5 495/4/5 494/4/5
f 500/4/5 495/4/5 499/4/5
f 501/3/6 502/3/6 506/3/6
f 506/3/6 502/3/6 507/3/6
f 503/3/6 504/3/6 508/3/6
f 508/3/6 504/3/6 509/3/6
f 505/3/6 506/3/6 511/3/6
f 511/3/6 506/3/6 512/3/6
f 509/3/6 510/3/6 513/3/6
f 513/3/6 510/3/6 514/3/6
f 515/3/6 516/3/6 519/3/6
f 519/3/6 516/3/6 520/3/6
f 517/3/6 518/3/6 523/3/6
f 523/3/6 518/3/6 524/3/6
f 520/3/6 521/3/6 525/3/6
f 525/3/6 521/3/6 526/3/6
f 522/3/6 523/3/6 527/3/6
f 527/3/6 523/3/6 528/3/6
f 529/4/6 530/4/6 532/4/6
f 532/4/6 530/4/6 533/4/6
f 531/2/6 532/2/6 536/2/6
f 536/2/6 532/2/6 537/2/6
f 533/2/6 534/2/6 538/2/6
f 538/2/6 534/2/6 539/2/6
f 535/4/6 536/4/6 541/4/6
f 541/4/6 536/4/6 542/4/6
f 539/4/6 540/4/6 545/4/6
f 545/4/6 540/4/6 546/4/6
f 542/2/6 543/2/6 547/2/6
f 547/2/6 543/2/6 548/2/6
f 544/2/6 545/2/6 549/2/6
f 549/2/6 545/2/6 550/2/6
f 548/4/6 549/4/6 551/4/6
f 551/4/6 549/4/6 552/4/6
f 553/3/6 554/3/6 556/3/6
f 556/3/6 554/3/6 557/3/6
f 555/3/6 556/3/6 559/3/6
f 559/3/6 556/3/6 560/3/6
f 557/3/6 558/3/6 561/3/6
f 561/3/6 558/3/6 562/3/6
f 560/3/6 561/3/6 563/3/6
f 563/3/6 561/3/6 564/3/6
f 565/4/6 566/4/6 567/4/6
f 567/4/6 566/4/6 568/4/6
